<?xml version="1.0" encoding="utf-8"?>
<!DOCTYPE svg PUBLIC "-//W3C//DTD SVG 1.1//EN" "http://www.w3.org/Graphics/SVG/1.1/DTD/svg11.dtd">
<svg version="1.1" xmlns="http://www.w3.org/2000/svg" xmlns:xlink="http://www.w3.org/1999/xlink" x="0px" y="0px" viewBox="0 0 256 256" enable-background="new 0 0 256 256" xml:space="preserve">
<g><g><path fill="#000000" d="M230.1,188.6l15.9-10l-5.9-14.4l-18.2,4.2c-2.6-3.6-5.8-6.8-9.4-9.5l4.1-18.2l-14.3-6l-9.8,15.8c-4.5-0.7-9-0.7-13.4-0.1l-9.8-15.8l-14.4,5.9l4,18.2c-3.6,2.6-6.8,5.8-9.6,9.5l-18-4.3l-6,14.3l15.6,10.1c-0.7,4.5-0.7,9,0,13.4l-15.8,9.7l5.9,14.4l18.2-4c2.6,3.6,5.8,6.8,9.5,9.5l-4.3,18.1l14.3,6l10.1-15.7c4.5,0.7,9,0.7,13.4,0l10,15.9l14.4-5.9l-4.2-18.3c3.5-2.6,6.7-5.8,9.4-9.4l18.3,4.1l6-14.3l-15.9-9.9C230.7,197.4,230.7,193,230.1,188.6L230.1,188.6z M205.5,203.5c-4.6,11-17.3,16.2-28.4,11.6c-11-4.6-16.3-17.3-11.6-28.4c4.6-11,17.3-16.3,28.4-11.6C205,179.8,210.2,192.4,205.5,203.5L205.5,203.5z M57.9,86.7h95.8v19.2H57.9V86.7L57.9,86.7z M57.9,134.6H143v19.2H57.9V134.6L57.9,134.6z M57.9,182.5H125v19.2H57.9V182.5L57.9,182.5z M29.1,211.2V86.7c0-9.5,9.6-9.6,19.2-9.6h28.7c5.3,0,9.6-4.3,9.6-9.6V38.3c0-8.5-0.1-17,6.8-18.7l69.8,0c10.6,0,19.2,8.6,19.2,19.2V125h19.2V38.7c0-21.1-17.2-38.3-38.4-38.3H86.6c-10.2,0-19.9,9.5-36.4,26.2c-2.3,2.3-4.6,4.7-7,7.1c-2.4,2.4-4.8,4.7-7.1,7C19.5,57.1,10,66.9,10,77.1v134.2c0,21.1,17.2,38.3,38.3,38.3h95.8v-19.2H48.3C37.7,230.4,29.1,221.8,29.1,211.2L29.1,211.2z"/></g></g>
</svg>
